<mxfile host="app.diagrams.net" modified="2021-03-15T03:08:52.374Z" agent="5.0 (Macintosh; Intel Mac OS X 10_13_6) AppleWebKit/537.36 (KHTML, like Gecko) Chrome/89.0.4389.82 Safari/537.36" etag="gdLdZ2Tqdtyvqbo_L-7e" version="14.4.8" type="github">
  <diagram id="2blye6LUuPmFo92JTlYj" name="第 1 页">
    <mxGraphModel dx="869" dy="557" grid="1" gridSize="10" guides="1" tooltips="1" connect="1" arrows="1" fold="1" page="1" pageScale="1" pageWidth="827" pageHeight="1169" math="0" shadow="0">
      <root>
        <mxCell id="0" />
        <mxCell id="1" parent="0" />
        <mxCell id="BjQNF1Jr-LZJrsNhqB_S-13" style="rounded=0;orthogonalLoop=1;jettySize=auto;html=1;entryX=1;entryY=0.5;entryDx=0;entryDy=0;" edge="1" parent="1" source="BjQNF1Jr-LZJrsNhqB_S-2" target="BjQNF1Jr-LZJrsNhqB_S-8">
          <mxGeometry relative="1" as="geometry" />
        </mxCell>
        <mxCell id="BjQNF1Jr-LZJrsNhqB_S-32" value="1" style="edgeLabel;html=1;align=center;verticalAlign=middle;resizable=0;points=[];" vertex="1" connectable="0" parent="BjQNF1Jr-LZJrsNhqB_S-13">
          <mxGeometry x="0.017" y="1" relative="1" as="geometry">
            <mxPoint as="offset" />
          </mxGeometry>
        </mxCell>
        <mxCell id="BjQNF1Jr-LZJrsNhqB_S-16" style="edgeStyle=none;rounded=0;orthogonalLoop=1;jettySize=auto;html=1;entryX=0;entryY=0.5;entryDx=0;entryDy=0;" edge="1" parent="1" source="BjQNF1Jr-LZJrsNhqB_S-2" target="BjQNF1Jr-LZJrsNhqB_S-9">
          <mxGeometry relative="1" as="geometry" />
        </mxCell>
        <mxCell id="BjQNF1Jr-LZJrsNhqB_S-28" value="1" style="edgeLabel;html=1;align=center;verticalAlign=middle;resizable=0;points=[];" vertex="1" connectable="0" parent="BjQNF1Jr-LZJrsNhqB_S-16">
          <mxGeometry x="0.0867" relative="1" as="geometry">
            <mxPoint as="offset" />
          </mxGeometry>
        </mxCell>
        <mxCell id="BjQNF1Jr-LZJrsNhqB_S-2" value="服务大厅" style="whiteSpace=wrap;html=1;align=center;" vertex="1" parent="1">
          <mxGeometry x="340" y="120" width="100" height="40" as="geometry" />
        </mxCell>
        <mxCell id="BjQNF1Jr-LZJrsNhqB_S-18" style="edgeStyle=none;rounded=0;orthogonalLoop=1;jettySize=auto;html=1;entryX=1;entryY=0.5;entryDx=0;entryDy=0;" edge="1" parent="1" source="BjQNF1Jr-LZJrsNhqB_S-3" target="BjQNF1Jr-LZJrsNhqB_S-10">
          <mxGeometry relative="1" as="geometry" />
        </mxCell>
        <mxCell id="BjQNF1Jr-LZJrsNhqB_S-30" value="1" style="edgeLabel;html=1;align=center;verticalAlign=middle;resizable=0;points=[];" vertex="1" connectable="0" parent="BjQNF1Jr-LZJrsNhqB_S-18">
          <mxGeometry x="0.0571" relative="1" as="geometry">
            <mxPoint as="offset" />
          </mxGeometry>
        </mxCell>
        <mxCell id="BjQNF1Jr-LZJrsNhqB_S-3" value="&lt;span style=&quot;color: rgb(50 , 50 , 50) ; font-size: 13px ; background-color: rgba(255 , 255 , 255 , 0.01)&quot;&gt;服务站点&lt;/span&gt;" style="whiteSpace=wrap;html=1;align=center;" vertex="1" parent="1">
          <mxGeometry x="580" y="260" width="100" height="40" as="geometry" />
        </mxCell>
        <mxCell id="BjQNF1Jr-LZJrsNhqB_S-4" value="&lt;span style=&quot;color: rgb(50 , 50 , 50) ; font-size: 13px ; background-color: rgba(255 , 255 , 255 , 0.01)&quot;&gt;短信模板&lt;/span&gt;" style="whiteSpace=wrap;html=1;align=center;" vertex="1" parent="1">
          <mxGeometry x="30" y="240" width="100" height="40" as="geometry" />
        </mxCell>
        <mxCell id="BjQNF1Jr-LZJrsNhqB_S-20" value="1" style="edgeStyle=none;rounded=0;orthogonalLoop=1;jettySize=auto;html=1;entryX=0.5;entryY=0;entryDx=0;entryDy=0;" edge="1" parent="1" source="BjQNF1Jr-LZJrsNhqB_S-5" target="BjQNF1Jr-LZJrsNhqB_S-11">
          <mxGeometry relative="1" as="geometry" />
        </mxCell>
        <mxCell id="BjQNF1Jr-LZJrsNhqB_S-5" value="&lt;span style=&quot;color: rgb(50 , 50 , 50) ; font-size: 13px ; background-color: rgba(255 , 255 , 255 , 0.01)&quot;&gt;预约参数&lt;/span&gt;" style="whiteSpace=wrap;html=1;align=center;" vertex="1" parent="1">
          <mxGeometry x="330" y="340" width="100" height="40" as="geometry" />
        </mxCell>
        <mxCell id="BjQNF1Jr-LZJrsNhqB_S-22" style="edgeStyle=none;rounded=0;orthogonalLoop=1;jettySize=auto;html=1;entryX=0;entryY=0.5;entryDx=0;entryDy=0;" edge="1" parent="1" source="BjQNF1Jr-LZJrsNhqB_S-6" target="BjQNF1Jr-LZJrsNhqB_S-12">
          <mxGeometry relative="1" as="geometry" />
        </mxCell>
        <mxCell id="BjQNF1Jr-LZJrsNhqB_S-25" value="1" style="edgeLabel;html=1;align=center;verticalAlign=middle;resizable=0;points=[];" vertex="1" connectable="0" parent="BjQNF1Jr-LZJrsNhqB_S-22">
          <mxGeometry x="0.08" y="3" relative="1" as="geometry">
            <mxPoint as="offset" />
          </mxGeometry>
        </mxCell>
        <mxCell id="BjQNF1Jr-LZJrsNhqB_S-6" value="&lt;span style=&quot;color: rgb(50 , 50 , 50) ; font-size: 13px ; background-color: rgba(255 , 255 , 255 , 0.01)&quot;&gt;预约记录&lt;/span&gt;" style="whiteSpace=wrap;html=1;align=center;" vertex="1" parent="1">
          <mxGeometry x="330" y="520" width="100" height="40" as="geometry" />
        </mxCell>
        <mxCell id="BjQNF1Jr-LZJrsNhqB_S-7" value="支付订单" style="whiteSpace=wrap;html=1;align=center;" vertex="1" parent="1">
          <mxGeometry x="400" y="600" width="100" height="40" as="geometry" />
        </mxCell>
        <mxCell id="BjQNF1Jr-LZJrsNhqB_S-14" style="edgeStyle=none;rounded=0;orthogonalLoop=1;jettySize=auto;html=1;entryX=0.5;entryY=0;entryDx=0;entryDy=0;exitX=0;exitY=0.5;exitDx=0;exitDy=0;" edge="1" parent="1" source="BjQNF1Jr-LZJrsNhqB_S-8" target="BjQNF1Jr-LZJrsNhqB_S-4">
          <mxGeometry relative="1" as="geometry" />
        </mxCell>
        <mxCell id="BjQNF1Jr-LZJrsNhqB_S-33" value="N" style="edgeLabel;html=1;align=center;verticalAlign=middle;resizable=0;points=[];" vertex="1" connectable="0" parent="BjQNF1Jr-LZJrsNhqB_S-14">
          <mxGeometry x="-0.2308" y="-3" relative="1" as="geometry">
            <mxPoint as="offset" />
          </mxGeometry>
        </mxCell>
        <mxCell id="BjQNF1Jr-LZJrsNhqB_S-8" value="拥有" style="shape=rhombus;perimeter=rhombusPerimeter;whiteSpace=wrap;html=1;align=center;rotation=-25;" vertex="1" parent="1">
          <mxGeometry x="160" y="150" width="110" height="60" as="geometry" />
        </mxCell>
        <mxCell id="BjQNF1Jr-LZJrsNhqB_S-17" style="edgeStyle=none;rounded=0;orthogonalLoop=1;jettySize=auto;html=1;entryX=0.5;entryY=0;entryDx=0;entryDy=0;" edge="1" parent="1" source="BjQNF1Jr-LZJrsNhqB_S-9" target="BjQNF1Jr-LZJrsNhqB_S-3">
          <mxGeometry relative="1" as="geometry" />
        </mxCell>
        <mxCell id="BjQNF1Jr-LZJrsNhqB_S-29" value="N" style="edgeLabel;html=1;align=center;verticalAlign=middle;resizable=0;points=[];" vertex="1" connectable="0" parent="BjQNF1Jr-LZJrsNhqB_S-17">
          <mxGeometry x="-0.3" y="-1" relative="1" as="geometry">
            <mxPoint as="offset" />
          </mxGeometry>
        </mxCell>
        <mxCell id="BjQNF1Jr-LZJrsNhqB_S-9" value="拥有" style="shape=rhombus;perimeter=rhombusPerimeter;whiteSpace=wrap;html=1;align=center;rotation=30;" vertex="1" parent="1">
          <mxGeometry x="500" y="150" width="120" height="60" as="geometry" />
        </mxCell>
        <mxCell id="BjQNF1Jr-LZJrsNhqB_S-19" style="edgeStyle=none;rounded=0;orthogonalLoop=1;jettySize=auto;html=1;" edge="1" parent="1" source="BjQNF1Jr-LZJrsNhqB_S-10" target="BjQNF1Jr-LZJrsNhqB_S-5">
          <mxGeometry relative="1" as="geometry" />
        </mxCell>
        <mxCell id="BjQNF1Jr-LZJrsNhqB_S-31" value="N" style="edgeLabel;html=1;align=center;verticalAlign=middle;resizable=0;points=[];" vertex="1" connectable="0" parent="BjQNF1Jr-LZJrsNhqB_S-19">
          <mxGeometry x="-0.4" y="1" relative="1" as="geometry">
            <mxPoint as="offset" />
          </mxGeometry>
        </mxCell>
        <mxCell id="BjQNF1Jr-LZJrsNhqB_S-10" value="拥有" style="shape=rhombus;perimeter=rhombusPerimeter;whiteSpace=wrap;html=1;align=center;rotation=0;" vertex="1" parent="1">
          <mxGeometry x="320" y="250" width="120" height="60" as="geometry" />
        </mxCell>
        <mxCell id="BjQNF1Jr-LZJrsNhqB_S-21" style="edgeStyle=none;rounded=0;orthogonalLoop=1;jettySize=auto;html=1;entryX=0.5;entryY=0;entryDx=0;entryDy=0;" edge="1" parent="1" source="BjQNF1Jr-LZJrsNhqB_S-11" target="BjQNF1Jr-LZJrsNhqB_S-6">
          <mxGeometry relative="1" as="geometry" />
        </mxCell>
        <mxCell id="BjQNF1Jr-LZJrsNhqB_S-27" value="N" style="edgeLabel;html=1;align=center;verticalAlign=middle;resizable=0;points=[];" vertex="1" connectable="0" parent="BjQNF1Jr-LZJrsNhqB_S-21">
          <mxGeometry x="-0.5" relative="1" as="geometry">
            <mxPoint as="offset" />
          </mxGeometry>
        </mxCell>
        <mxCell id="BjQNF1Jr-LZJrsNhqB_S-11" value="拥有" style="shape=rhombus;perimeter=rhombusPerimeter;whiteSpace=wrap;html=1;align=center;rotation=0;" vertex="1" parent="1">
          <mxGeometry x="320" y="420" width="120" height="60" as="geometry" />
        </mxCell>
        <mxCell id="BjQNF1Jr-LZJrsNhqB_S-23" style="edgeStyle=none;rounded=0;orthogonalLoop=1;jettySize=auto;html=1;exitX=0.5;exitY=1;exitDx=0;exitDy=0;entryX=1;entryY=0.5;entryDx=0;entryDy=0;" edge="1" parent="1" source="BjQNF1Jr-LZJrsNhqB_S-12" target="BjQNF1Jr-LZJrsNhqB_S-7">
          <mxGeometry relative="1" as="geometry">
            <mxPoint x="510" y="620" as="targetPoint" />
            <Array as="points" />
          </mxGeometry>
        </mxCell>
        <mxCell id="BjQNF1Jr-LZJrsNhqB_S-26" value="1" style="edgeLabel;html=1;align=center;verticalAlign=middle;resizable=0;points=[];" vertex="1" connectable="0" parent="BjQNF1Jr-LZJrsNhqB_S-23">
          <mxGeometry x="-0.2" relative="1" as="geometry">
            <mxPoint as="offset" />
          </mxGeometry>
        </mxCell>
        <mxCell id="BjQNF1Jr-LZJrsNhqB_S-12" value="拥有" style="shape=rhombus;perimeter=rhombusPerimeter;whiteSpace=wrap;html=1;align=center;rotation=0;" vertex="1" parent="1">
          <mxGeometry x="540" y="510" width="120" height="60" as="geometry" />
        </mxCell>
        <mxCell id="BjQNF1Jr-LZJrsNhqB_S-24" style="edgeStyle=none;rounded=0;orthogonalLoop=1;jettySize=auto;html=1;entryX=1;entryY=0.5;entryDx=0;entryDy=0;" edge="1" parent="1" source="BjQNF1Jr-LZJrsNhqB_S-7" target="BjQNF1Jr-LZJrsNhqB_S-7">
          <mxGeometry relative="1" as="geometry" />
        </mxCell>
        <mxCell id="BjQNF1Jr-LZJrsNhqB_S-35" value="&lt;span style=&quot;color: rgb(50 , 50 , 50) ; font-size: 13px ; background-color: rgba(255 , 255 , 255 , 0.01)&quot;&gt;服务站点的叶子节点才能添加预约参数&lt;/span&gt;" style="text;html=1;strokeColor=#d6b656;align=center;verticalAlign=middle;whiteSpace=wrap;rounded=0;fillColor=#fff2cc;" vertex="1" parent="1">
          <mxGeometry x="130" y="315" width="130" height="90" as="geometry" />
        </mxCell>
        <mxCell id="BjQNF1Jr-LZJrsNhqB_S-36" value="" style="endArrow=none;dashed=1;html=1;dashPattern=1 3;strokeWidth=2;entryX=0;entryY=0.5;entryDx=0;entryDy=0;exitX=1;exitY=0.5;exitDx=0;exitDy=0;" edge="1" parent="1" source="BjQNF1Jr-LZJrsNhqB_S-35" target="BjQNF1Jr-LZJrsNhqB_S-5">
          <mxGeometry width="50" height="50" relative="1" as="geometry">
            <mxPoint x="180" y="490" as="sourcePoint" />
            <mxPoint x="230" y="440" as="targetPoint" />
          </mxGeometry>
        </mxCell>
      </root>
    </mxGraphModel>
  </diagram>
</mxfile>
